<?xml version="1.0" encoding="utf-8"?>
<!-- Generator: Adobe Illustrator 19.0.0, SVG Export Plug-In . SVG Version: 6.00 Build 0)  -->
<svg version="1.1" xmlns="http://www.w3.org/2000/svg" xmlns:xlink="http://www.w3.org/1999/xlink" x="0px" y="0px"
	 viewBox="-947 529 24 24" style="enable-background:new -947 529 24 24;" xml:space="preserve">
<style type="text/css">
	.st0{fill:#FFFFFF;}
	.st1{fill:none;}
	.st2{display:none;}
	.st3{display:inline;}
</style>
<g id="Livello_1">
	<g>
		<path class="st0" d="M-937.4,573.1v0.3h-1.5v2.7h-0.4v-2.7h-1.5v-0.3H-937.4z"/>
		<path class="st0" d="M-934.8,574.5l1.8,1.6h-0.5l-1.5-1.3l-1.4,1.3h-0.5l1.7-1.6l-1.6-1.4h0.5l1.3,1.2l1.3-1.2h0.5L-934.8,574.5z"
			/>
		<path class="st0" d="M-929.2,573.1v0.3h-1.5v2.7h-0.4v-2.7h-1.5v-0.3H-929.2z"/>
	</g>
	<g>
		<polygon class="st1" points="-934,538 -928.5,538 -934,532.5 		"/>
		<polygon points="-939.9,545 -937.9,545 -938.9,543.2 		"/>
		<path d="M-933.4,543.5C-933.5,543.5-933.5,543.4-933.4,543.5c-0.1-0.1-0.2-0.1-0.3-0.2s-0.2,0-0.3,0c-0.1,0-0.3,0-0.4,0h-1.6v1.2
			h1.6c0.2,0,0.3,0,0.4,0c0.1,0,0.2,0,0.3,0s0.1,0,0.2-0.1c0,0,0.1-0.1,0.1-0.1c0,0,0-0.1,0-0.2c0-0.1,0-0.1,0-0.2
			c0-0.1,0-0.2,0-0.2C-933.4,543.6-933.4,543.5-933.4,543.5z"/>
		<path d="M-933,531h-8c-1.1,0-2,0.9-2,2l0,16c0,1.1,0.9,2,2,2h12c1.1,0,2-0.9,2-2v-12L-933,531z M-937.3,546l-0.4-0.7h-2.3
			l-0.4,0.7h-0.4l1.7-3h0.5l1.7,3H-937.3z M-933,544.2c0,0.1,0,0.2,0,0.2s-0.1,0.1-0.1,0.2c-0.1,0.1-0.1,0.1-0.2,0.1
			c-0.1,0-0.2,0.1-0.4,0.1c-0.2,0-0.3,0-0.6,0h-1.6v1.2h-0.4v-3h2.3c0.2,0,0.3,0,0.5,0c0.1,0,0.2,0,0.3,0.1c0.1,0,0.1,0.1,0.2,0.1
			s0.1,0.1,0.1,0.2c0,0.1,0,0.1,0,0.2c0,0.1,0,0.2,0,0.3C-933,544-933,544.1-933,544.2z M-929.7,546l-2-1.4h-0.5v1.4h-0.4v-3h0.4
			v1.3h0.5l1.9-1.3h0.6l-2.1,1.5l2.2,1.5H-929.7z M-934,538v-5.5l5.5,5.5H-934z"/>
	</g>
</g>
<g id="Livello_2" class="st2">
	<path class="st3" d="M-941,531c-1.1,0-2,0.9-2,2l0,16c0,1.1,0.9,2,2,2h12c1.1,0,2-0.9,2-2v-12l-6-6H-941z M-934,538v-5.5l5.5,5.5
		H-934z"/>
</g>
</svg>
