<?xml version="1.0" encoding="utf-8"?>
<!-- Generator: Adobe Illustrator 19.0.0, SVG Export Plug-In . SVG Version: 6.00 Build 0)  -->
<svg version="1.1" id="Livello_1" xmlns="http://www.w3.org/2000/svg" xmlns:xlink="http://www.w3.org/1999/xlink" x="0px" y="0px"
	 viewBox="0 0 24 24" style="enable-background:new 0 0 24 24;" xml:space="preserve">
<g id="XMLID_1_">
	<path id="XMLID_3_" d="M7.2,13.9H3.6l-0.7,1.4H1.2l3.3-6.6h1.6l3.4,6.6H7.9L7.2,13.9z M5.4,10.1l-1.2,2.5h2.4L5.4,10.1z"/>
	<path id="XMLID_6_" d="M12,15.2c-0.3,0-0.6-0.1-0.9-0.2c-0.5-0.2-0.9-0.4-1.2-0.8c-0.3-0.4-0.5-0.8-0.6-1.4h1.6
		c0.1,0.4,0.3,0.7,0.7,0.9c0.4,0.2,0.9,0.2,1.5,0.2c0.6,0,1-0.1,1.3-0.2c0.3-0.1,0.4-0.3,0.4-0.6c0-0.1,0-0.2-0.1-0.3
		c0-0.1-0.1-0.1-0.1-0.2c-0.1-0.1-0.4-0.2-0.7-0.2c-0.3,0-0.8-0.1-1.5-0.1c-0.3,0-0.6,0-0.9-0.1c-0.3,0-0.5-0.1-0.7-0.2
		c-0.4-0.1-0.7-0.3-0.9-0.6c-0.2-0.3-0.3-0.6-0.3-1c0-0.6,0.3-1.1,0.8-1.4c0.5-0.4,1.3-0.5,2.3-0.5c1.1,0,1.9,0.2,2.5,0.5
		c0.6,0.3,1,0.9,1.1,1.7h-1.6c-0.1-0.4-0.3-0.7-0.7-0.8c-0.4-0.1-0.8-0.2-1.4-0.2c-0.6,0-1,0.1-1.2,0.2c-0.2,0.1-0.3,0.3-0.3,0.5
		c0,0.1,0,0.2,0.1,0.3c0,0.1,0.1,0.1,0.3,0.2c0.1,0.1,0.3,0.1,0.6,0.1c0.3,0,0.6,0.1,1.1,0.1c0.4,0,0.7,0,1,0.1
		c0.3,0,0.6,0.1,0.8,0.2c0.5,0.1,0.8,0.3,1,0.6c0.2,0.3,0.3,0.6,0.3,1c0,0.7-0.3,1.2-0.8,1.6c-0.5,0.4-1.3,0.6-2.4,0.6
		C12.7,15.3,12.4,15.3,12,15.2z"/>
	<path id="XMLID_8_" d="M17.7,15.3v-1.4h1.8v-3.8h-1.8V8.7h5v1.4H21v3.8h1.8v1.4H17.7z"/>
</g>
</svg>
