<?xml version="1.0" encoding="utf-8"?>
<!-- Generator: Adobe Illustrator 19.0.0, SVG Export Plug-In . SVG Version: 6.00 Build 0)  -->
<svg version="1.1" id="Livello_1" xmlns="http://www.w3.org/2000/svg" xmlns:xlink="http://www.w3.org/1999/xlink" x="0px" y="0px"
	 viewBox="0 0 24 24" style="enable-background:new 0 0 24 24;" xml:space="preserve">
<style type="text/css">
	.st0{fill:#010002;}
</style>
<g>
	<g>
		<g>
			<path d="M-7.2,16.5H-8c-0.2,0-0.4-0.2-0.4-0.4v-1.3c0-1.8-0.5-3.4-1.3-4.9l-4.5,1.7c0,0-0.1,0-0.1,0c-0.1,0-0.2,0-0.3-0.1
				c-0.1-0.1-0.1-0.2-0.1-0.4l1.5-4.7c-0.5-0.3-1-0.5-1.5-0.7V5.6c0-0.6-0.5-1.1-1.1-1.1h-1.5v5.2c0,0.2-0.2,0.4-0.4,0.4
				s-0.4-0.2-0.4-0.4V4.5h-1.5c-0.6,0-1.1,0.5-1.1,1.1v0.1c-0.6,0.2-1.1,0.4-1.6,0.7l1.6,4.7c0,0.1,0,0.3-0.1,0.4
				c-0.1,0.1-0.2,0.1-0.3,0.1c0,0-0.1,0-0.1,0l-4.7-1.6c-0.8,1.4-1.2,2.9-1.2,4.6v1.5c0,0.2-0.2,0.4-0.4,0.4h-0.8
				c-0.2,0-0.4,0.2-0.4,0.4v2.3c0,0.2,0.2,0.4,0.4,0.4h21c0.2,0,0.4-0.2,0.4-0.4v-2.3C-6.8,16.7-7,16.5-7.2,16.5z M-11.3,17.2h-12.7
				c-0.2,0-0.4-0.2-0.4-0.4s0.2-0.4,0.4-0.4h12.7c0.2,0,0.4,0.2,0.4,0.4S-11.1,17.2-11.3,17.2z"/>
			<path id="XMLID_2_" d="M-23,6.9c-1,0.7-1.8,1.5-2.5,2.5l3.8,1.3L-23,6.9z"/>
			<path id="XMLID_1_" d="M-10.1,9.3c-0.7-1-1.5-1.8-2.5-2.4l-1.2,3.8L-10.1,9.3z"/>
		</g>
	</g>
</g>
<g id="XMLID_128_">
	<circle id="XMLID_129_" cx="17.3" cy="5.8" r="1.3"/>
	<path id="XMLID_130_" d="M17.1,11.1c-0.4-0.3-1.8-1.2-1.8-1.2s0.6-1.6,0.6-2.5c0-0.9-0.9-1.2-1.4-1.2c-2.3,0-3.3,1.1-3.3,1.1L9.4,6
		c0,0,0.1-0.2,0-0.5C9.4,5.3,9.1,5.1,9.1,5.1S8.7,5.7,8.7,5.7L8.1,5.4L8.6,6L8.1,6.6c0,0,0.2,0.1,0.4,0.1c0.2,0,0.6-0.3,0.6-0.3
		l4,2.9L14,9c0,0-0.1,0.9,0,1.3c0.1,0.4,0.9,0.8,2.5,1.5C17.6,12.2,17.9,11.7,17.1,11.1z"/>
	<path id="XMLID_131_" d="M16.4,18.4L12.3,16c0.4-0.4,1.2-1.4,2-2.3c1.1-1.3,0.1-2.2-0.4-2.6c-0.4-0.3-3.7-2.6-3.7-2.6
		c-0.9,1.2,0,2.4,0.5,2.8c0.5,0.4,1.2,0.7,1.5,1c0.4,0.3,0.5,0.6,0.2,1c-0.2,0.3-1.1,1.4-1.5,1.9l-5-2.9c-0.3-0.2-0.7-0.1-0.8,0.2
		c-0.2,0.3-0.1,0.7,0.2,0.8l10.6,6.1c0.3,0.2,0.7,0.1,0.8-0.2C16.8,18.9,16.7,18.5,16.4,18.4z"/>
</g>
<g id="XMLID_153_">
	<path id="XMLID_154_" class="st0" d="M42.9,14.1V12h-2.1v4.3l2.1,0v-1.1h4.3v4.3h-4.3v-2.1h-3.2V8.8h-2.1V4.5h4.3v4.3h-1.1v2.1h2.1
		V9.9h4.3v4.3H42.9z"/>
</g>
<g id="XMLID_233_">
	<g id="XMLID_237_">
		<path id="XMLID_238_" class="st0" d="M75.4,16.9c0-1.2,0.7-2.3,1.7-2.8c-0.6-0.2-1.3-0.4-2-0.5c1.5-0.8,2.5-2.4,2.5-4.3
			c0-2.7-2.2-4.9-4.9-4.9s-4.9,2.2-4.9,4.9c0,1.8,1,3.4,2.5,4.3c-3.7,0.6-6.4,2.5-6.4,4.7h11.7C75.5,17.9,75.4,17.4,75.4,16.9z"/>
	</g>
	<path id="XMLID_234_" class="st0" d="M78.7,14.4c-1.4,0-2.6,1.1-2.6,2.6c0,1.4,1.2,2.6,2.6,2.6c1.4,0,2.6-1.1,2.6-2.6
		C81.3,15.5,80.1,14.4,78.7,14.4z M80.4,17.4h-1.2v1.2h-0.9v-1.2H77v-0.9h1.2v-1.2h0.9v1.2h1.2V17.4z"/>
</g>
</svg>
