<?xml version="1.0" encoding="utf-8"?>
<!-- Generator: Adobe Illustrator 19.0.0, SVG Export Plug-In . SVG Version: 6.00 Build 0)  -->
<svg version="1.1" xmlns="http://www.w3.org/2000/svg" xmlns:xlink="http://www.w3.org/1999/xlink" x="0px" y="0px"
	 viewBox="-1487 1489 24 24" style="enable-background:new -1487 1489 24 24;" xml:space="preserve">
<style type="text/css">
	.st0{display:none;}
	.st1{display:inline;fill:#00D956;}
</style>
<g id="Livello_2" class="st0">
	<circle class="st1" cx="-1475" cy="1501" r="12"/>
</g>
<g id="Livello_1">
	<path d="M-1470.1,1504.5l2,2.2c0.1,0.1,0.1,0.2,0,0.3c-1.2,1.1-2.8,2.2-5.5,2.2c-4.7,0-8.4-3.7-8.4-8.2c0-4.4,3.7-8.1,8.4-8.1
		c2.3,0,4.3,1,5.5,2.2c0.1,0.1,0.1,0.2,0,0.3l-2,2.2c-0.1,0.1-0.2,0.1-0.3,0c-0.6-0.7-1.8-1.3-3.2-1.3c-1.9,0-4.5,1.5-4.5,4.7
		c0,3.2,2.6,4.8,4.5,4.8c1.4,0,2.6-0.6,3.2-1.3C-1470.3,1504.3-1470.2,1504.3-1470.1,1504.5z"/>
	<path d="M-1446.7,1514.5h-5.8c-0.1,0-0.2-0.1-0.2-0.2v-15.8c0-0.1,0.1-0.2,0.2-0.2h5.8c4.7,0,8.4,3.5,8.4,8.1
		C-1438.3,1511.1-1442,1514.5-1446.7,1514.5z M-1446.5,1501.7h-2.2c-0.1,0-0.2,0.1-0.2,0.2v9c0,0.1,0.1,0.2,0.2,0.2h2.2
		c2.1,0,4.3-1.8,4.3-4.7S-1444.4,1501.7-1446.5,1501.7z"/>
	<text transform="matrix(1 0 0 1 -1518.875 1498.3125)"><tspan x="0" y="0" style="font-family:'CharlevoixPro-Bold'; font-size:12px;">A</tspan><tspan x="0" y="14.4" style="font-family:'CharlevoixPro-Bold'; font-size:12px;">C</tspan><tspan x="0" y="28.8" style="font-family:'CharlevoixPro-Bold'; font-size:12px;">D</tspan></text>
</g>
</svg>
