<?xml version="1.0" encoding="utf-8"?>
<!-- Generator: Adobe Illustrator 19.0.0, SVG Export Plug-In . SVG Version: 6.00 Build 0)  -->
<svg version="1.1" id="Livello_1" xmlns="http://www.w3.org/2000/svg" xmlns:xlink="http://www.w3.org/1999/xlink" x="0px" y="0px"
	 viewBox="-7144 286.3 24 24" style="enable-background:new -7144 286.3 24 24;" xml:space="preserve">
<g>
	<path d="M-7140.1,304.8v-10h12.7v8.5l1.8-1.8v-9.4c0-1-0.8-1.8-1.8-1.8h-0.9v-1.8h-1.8v1.8h-7.3v-1.8h-1.8v1.8h-0.9
		c-1,0-1.8,0.8-1.8,1.8v12.7c0,1,0.8,1.8,1.8,1.8h8.4l-1.8-1.8H-7140.1z"/>
	<path d="M-7125.7,305.4l-1.2,1.2C-7126.3,306.4-7125.9,305.9-7125.7,305.4z"/>
	<rect x="-7138.3" y="296.2" width="1.8" height="1.8"/>
	<rect x="-7134.7" y="296.2" width="1.8" height="1.8"/>
	<rect x="-7131.1" y="296.2" width="1.8" height="1.8"/>
	<rect x="-7138.3" y="299" width="1.8" height="1.8"/>
	<rect x="-7134.7" y="299" width="1.8" height="1.8"/>
	<rect x="-7131.1" y="299" width="1.8" height="1.8"/>
	<rect x="-7138.3" y="301.7" width="1.8" height="1.8"/>
	<rect x="-7134.7" y="301.7" width="1.8" height="1.8"/>
	<rect x="-7131.1" y="301.7" width="1.8" height="1.8"/>
	<polygon points="-7122.9,299.9 -7125.6,302.6 -7127.4,304.4 -7127.9,304.8 -7129.4,306.3 -7130.9,304.8 -7131.9,303.8 
		-7132.8,304.6 -7132.6,304.8 -7130.8,306.7 -7129.4,308 -7128,306.7 -7125.6,304.3 -7122.1,300.7 	"/>
</g>
</svg>
