<?xml version="1.0" encoding="utf-8"?>
<!-- Generator: Adobe Illustrator 19.0.0, SVG Export Plug-In . SVG Version: 6.00 Build 0)  -->
<svg version="1.1" id="Livello_1" xmlns="http://www.w3.org/2000/svg" xmlns:xlink="http://www.w3.org/1999/xlink" x="0px" y="0px"
	 viewBox="-7144 286.3 24 24" style="enable-background:new -7144 286.3 24 24;" xml:space="preserve">
<g>
	<path d="M-7125.7,290.3h-0.9v-1.8h-1.8v1.8h-7.3v-1.8h-1.8v1.8h-0.9c-1,0-1.8,0.8-1.8,1.8v12.7c0,1,0.8,1.8,1.8,1.8h9.3
		c0.1-0.2,0.2-0.5,0.4-0.6h-0.4v-1.2h-9.3v-10h12.7v10h-0.2v1.2h-0.4c0.2,0.2,0.3,0.4,0.4,0.6h0.3c1,0,1.8-0.8,1.8-1.8v-12.7
		C-7123.8,291.2-7124.7,290.3-7125.7,290.3z"/>
	<rect x="-7136.5" y="296.2" width="1.8" height="1.8"/>
	<rect x="-7132.9" y="296.2" width="1.8" height="1.8"/>
	<rect x="-7129.3" y="296.2" width="1.8" height="1.8"/>
	<rect x="-7136.5" y="299" width="1.8" height="1.8"/>
	<rect x="-7132.9" y="299" width="1.8" height="1.8"/>
	<polygon points="-7129.1,299.1 -7127.5,299.1 -7127.5,299 -7129.3,299 -7129.3,300.8 -7129.1,300.8 	"/>
	<rect x="-7136.5" y="301.7" width="1.8" height="1.8"/>
	<rect x="-7132.9" y="301.7" width="1.8" height="1.8"/>
	<rect x="-7129.3" y="301.7" width="0.2" height="1.8"/>
	<polygon points="-7128.4,299.9 -7128.4,300.8 -7128.4,301.7 -7128.4,303.5 -7128.4,304.8 -7128.4,305.3 -7126.6,305.3 
		-7126.6,304.8 -7126.6,299.9 -7127.5,299.9 	"/>
	<circle cx="-7127.5" cy="307.1" r="0.9"/>
</g>
</svg>
