<?xml version="1.0" encoding="utf-8"?>
<!-- Generator: Adobe Illustrator 19.0.0, SVG Export Plug-In . SVG Version: 6.00 Build 0)  -->
<svg version="1.1" xmlns="http://www.w3.org/2000/svg" xmlns:xlink="http://www.w3.org/1999/xlink" x="0px" y="0px"
	 viewBox="-408 583.5 24 24" style="enable-background:new -408 583.5 24 24;" xml:space="preserve">
<style type="text/css">
	.st0{display:none;}
	.st1{display:inline;fill:#A80038;}
	.st2{display:inline;}
</style>
<g id="Livello_3" class="st0">
	<circle class="st1" cx="-396" cy="595.5" r="12"/>
</g>
<g id="Livello_1_copia">
	<g>
		<path d="M-403.4,599.9v-8.8h11.1v4.6l1.6,1v-8c0-0.9-0.7-1.6-1.6-1.6h-0.8v-1.6h-1.6v1.6h-6.4v-1.6h-1.6v1.6h-0.8
			c-0.9,0-1.6,0.7-1.6,1.6v11.1c0,0.9,0.7,1.6,1.6,1.6h9.5v-1.6H-403.4z"/>
		<rect x="-401.8" y="592.3" width="1.6" height="1.6"/>
		<rect x="-398.6" y="592.3" width="1.6" height="1.6"/>
		<rect x="-395.5" y="592.3" width="1.6" height="1.6"/>
		<rect x="-401.8" y="594.7" width="1.6" height="1.6"/>
		<rect x="-398.6" y="594.7" width="1.6" height="1.6"/>
		<rect x="-395.5" y="594.7" width="1.6" height="1.6"/>
		<rect x="-401.8" y="597.1" width="1.6" height="1.6"/>
		<rect x="-398.6" y="597.1" width="1.6" height="1.6"/>
		<rect x="-395.5" y="597.1" width="1.6" height="1.6"/>
	</g>
	<path d="M-393,596.3v8.9l7-4.5L-393,596.3z"/>
</g>
<g id="Livello_1" class="st0">
	<g class="st2">
		<path d="M-392.3,587.1h-0.8v-1.6h-1.6v1.6h-6.4v-1.6h-1.6v1.6h-0.8c-0.9,0-1.6,0.7-1.6,1.6v11.1c0,0.9,0.7,1.6,1.6,1.6h11.1
			c0.9,0,1.6-0.7,1.6-1.6v-11.1C-390.7,587.9-391.4,587.1-392.3,587.1z M-392.3,599.9h-11.1v-8.8h11.1V599.9z"/>
		<g>
			<g>
				<rect x="-401.8" y="592.3" width="1.6" height="1.6"/>
				<rect x="-398.6" y="592.3" width="1.6" height="1.6"/>
				<rect x="-395.5" y="592.3" width="1.6" height="1.6"/>
			</g>
			<g>
				<rect x="-401.8" y="594.7" width="1.6" height="1.6"/>
				<rect x="-398.6" y="594.7" width="1.6" height="1.6"/>
				<rect x="-395.5" y="594.7" width="1.6" height="1.6"/>
			</g>
			<g>
				<rect x="-401.8" y="597.1" width="1.6" height="1.6"/>
				<rect x="-398.6" y="597.1" width="1.6" height="1.6"/>
				<rect x="-395.5" y="597.1" width="1.6" height="1.6"/>
			</g>
		</g>
	</g>
</g>
</svg>
