<?xml version="1.0" encoding="utf-8"?>
<!-- Generator: Adobe Illustrator 19.0.0, SVG Export Plug-In . SVG Version: 6.00 Build 0)  -->
<svg version="1.1" id="Livello_1" xmlns="http://www.w3.org/2000/svg" xmlns:xlink="http://www.w3.org/1999/xlink" x="0px" y="0px"
	 viewBox="-408 583.5 24 24" style="enable-background:new -408 583.5 24 24;" xml:space="preserve">
<style type="text/css">
	.st0{display:none;}
	.st1{display:inline;fill:#00D956;}
</style>
<g id="Livello_2" class="st0">
	<circle class="st1" cx="-9027" cy="2370.9" r="12"/>
</g>
<g>
	<g>
		<path d="M-401.9,597.3l1,1.1c0.1,0.1,0.1,0.1,0,0.2c-0.6,0.6-1.4,1.1-2.8,1.1c-2.4,0-4.3-1.9-4.3-4.2c0-2.3,1.9-4.1,4.3-4.1
			c1.2,0,2.2,0.6,2.8,1.1c0.1,0.1,0.1,0.1,0,0.2l-1,1.1c-0.1,0.1-0.1,0.1-0.2,0c-0.3-0.4-0.9-0.7-1.7-0.7c-1,0-2.3,0.8-2.3,2.4
			c0,1.7,1.3,2.5,2.3,2.5c0.8,0,1.4-0.3,1.7-0.7C-402,597.3-402,597.3-401.9,597.3z"/>
	</g>
</g>
<g>
	<g>
		<path d="M-385.1,591.4h1c0.1,0,0.1,0.1,0.1,0.1v8c0,0.1-0.1,0.1-0.1,0.1h-1.7c-0.1,0-0.1-0.1-0.1-0.1v-3.4c0-0.1-0.1-0.2-0.2-0.1
			l-2.1,3.1c-0.1,0.1-0.1,0.1-0.2,0l-2.1-3c-0.1-0.1-0.2-0.1-0.2,0.1v3.4c0,0.1-0.1,0.1-0.1,0.1h-1.7c-0.1,0-0.1-0.1-0.1-0.1v-8
			c0-0.1,0.1-0.1,0.1-0.1h1c0.1,0,0.1,0,0.2,0.1l3,4.6c0.1,0.1,0.1,0.1,0.2,0l3-4.6C-385.2,591.4-385.1,591.4-385.1,591.4z"/>
	</g>
</g>
<g>
	<g>
		<path d="M-400,599.5v-8c0-0.1,0.1-0.1,0.1-0.1h3.5c1.7,0,3,1.2,3,2.9c0,1.1-0.5,1.9-1.4,2.5c-0.1,0.1-0.1,0.1-0.1,0.2l1.4,2.6
			c0.1,0.1,0,0.2-0.1,0.2h-1.9c-0.1,0-0.1,0-0.2-0.1l-1.2-2.3c0-0.1-0.1-0.1-0.2-0.1h-1.1c-0.1,0-0.1,0.1-0.1,0.1v2.2
			c0,0.1-0.1,0.1-0.1,0.1h-1.7C-400,599.7-400,599.6-400,599.5z M-396.6,595.5c0.7,0,1.3-0.5,1.3-1.2c0-0.7-0.6-1.2-1.3-1.2h-1.3
			c-0.1,0-0.1,0.1-0.1,0.1v2.1c0,0.1,0.1,0.1,0.1,0.1H-396.6L-396.6,595.5z"/>
	</g>
</g>
</svg>
