<?xml version="1.0" encoding="utf-8"?>
<!-- Generator: Adobe Illustrator 19.0.0, SVG Export Plug-In . SVG Version: 6.00 Build 0)  -->
<svg version="1.1" xmlns="http://www.w3.org/2000/svg" xmlns:xlink="http://www.w3.org/1999/xlink" x="0px" y="0px"
	 viewBox="-1487 1489 24 24" style="enable-background:new -1487 1489 24 24;" xml:space="preserve">
<style type="text/css">
	.st0{display:none;}
	.st1{display:inline;fill:#00D956;}
</style>
<g id="Livello_2" class="st0">
	<circle class="st1" cx="-1475" cy="1501" r="12"/>
</g>
<g id="Livello_1">
	<path d="M-1476.2,1509.1h-5.8c-0.1,0-0.2-0.1-0.2-0.2v-15.8c0-0.1,0.1-0.2,0.2-0.2h5.8c4.7,0,8.4,3.5,8.4,8.1
		C-1467.8,1505.6-1471.5,1509.1-1476.2,1509.1z M-1476,1496.3h-2.2c-0.1,0-0.2,0.1-0.2,0.2v9c0,0.1,0.1,0.2,0.2,0.2h2.2
		c2.1,0,4.3-1.8,4.3-4.7S-1473.9,1496.3-1476,1496.3z"/>
	<text transform="matrix(1 0 0 1 -1518.875 1498.3125)"><tspan x="0" y="0" style="font-family:'CharlevoixPro-Bold'; font-size:12px;">A</tspan><tspan x="0" y="14.4" style="font-family:'CharlevoixPro-Bold'; font-size:12px;">C</tspan><tspan x="0" y="28.8" style="font-family:'CharlevoixPro-Bold'; font-size:12px;">D</tspan></text>
</g>
</svg>
