<?xml version="1.0" encoding="utf-8"?>
<!-- Generator: Adobe Illustrator 19.0.0, SVG Export Plug-In . SVG Version: 6.00 Build 0)  -->
<svg version="1.1" id="Livello_1" xmlns="http://www.w3.org/2000/svg" xmlns:xlink="http://www.w3.org/1999/xlink" x="0px" y="0px"
	 viewBox="0 0 24 24" style="enable-background:new 0 0 24 24;" xml:space="preserve">
<style type="text/css">
	.st0{display:none;}
	.st1{display:inline;}
</style>
<g id="Livello_1_1_" class="st0">
	<path class="st1" d="M-944,542h8v-10h-8V542z M-944,550h8v-6h-8V550z M-934,532v6h8v-6H-934z"/>
	<path class="st1" d="M-928.5,547.1c0.6,0,1.1-0.5,1.1-1.1s-0.5-1.1-1.1-1.1s-1.1,0.5-1.1,1.1S-929.1,547.1-928.5,547.1z
		 M-931.5,547.1c0.6,0,1.1-0.5,1.1-1.1s-0.5-1.1-1.1-1.1s-1.1,0.5-1.1,1.1S-932.1,547.1-931.5,547.1z M-931.5,547.8
		c-0.8,0-2.5,0.4-2.5,1.3v0.9h5.1v-0.9C-928.9,548.2-930.6,547.8-931.5,547.8z M-928.5,547.8c-0.1,0-0.2,0-0.4,0
		c0.4,0.3,0.7,0.7,0.7,1.3v0.9h2.2v-0.9C-926,548.2-927.7,547.8-928.5,547.8z"/>
</g>
<g id="Livello_1_copia">
	<path d="M3,13h8V3H3V13z M3,21h8v-6H3V21z M13,3v6h8V3H13z"/>
</g>
<g id="iibsdw_1_">
	<g id="XMLID_1_">
		<path id="XMLID_42_" d="M15.1,20.1c1-1.5,1.9-3.1,2.9-4.6c0,0-0.1,0-0.1,0c-0.5,0-0.9,0-1.4,0c0,0-0.1,0-0.1,0
			c-0.3,0.2-0.7,0.2-1,0.1c-0.1,0-0.1,0-0.2,0c-0.3,0.3-0.7,0.7-1,1c-0.4-0.4-0.8-0.8-1.1-1.1c0.1-0.1,0.3-0.3,0.4-0.4
			c0.2,0.2,0.5,0.3,0.7,0.5c0.2-0.2,0.4-0.4,0.5-0.6c0,0,0-0.1,0-0.1c-0.1-0.3-0.1-0.5,0-0.7c0,0,0-0.1,0-0.1
			c-0.2-0.2-0.4-0.4-0.5-0.6c-0.3,0.2-0.5,0.3-0.7,0.5c-0.1-0.1-0.3-0.3-0.4-0.4c0.4-0.4,0.8-0.8,1.2-1.2c0.4,0.4,0.7,0.7,1.1,1.1
			c0.2,0,0.4-0.1,0.5-0.1c0.2,0,0.4,0,0.6,0.1c0.1,0,0.1,0.1,0.2,0.1c0.5,0,1,0,1.6,0c0,0,0.1,0,0.1,0c-0.3,0.6-0.4,1.2-0.1,1.7
			c0.3,0.6,0.8,0.8,1.5,0.9c0,0,0,0.1-0.1,0.1c-0.3,0.4-0.6,0.9-0.8,1.3c0,0.1,0,0.1,0,0.2c0.1,0.2,0.3,0.4,0.4,0.6
			c0,0.1,0,0.1,0,0.2c-0.3,0.5-0.6,0.9-0.8,1.4c0,0.1-0.1,0.1-0.1,0.1C17.2,20.1,16.1,20.1,15.1,20.1C15.1,20.1,15.1,20.1,15.1,20.1
			z M16.1,14.5c0-0.2-0.2-0.4-0.4-0.4c-0.2,0-0.4,0.2-0.4,0.4c0,0.2,0.2,0.4,0.4,0.4C16,14.9,16.1,14.7,16.1,14.5z"/>
		<path id="XMLID_39_" d="M21,14.5c0,0.8-0.6,1.4-1.4,1.4c-0.8,0-1.4-0.6-1.4-1.4c0-0.8,0.6-1.4,1.4-1.4C20.4,13.1,21,13.7,21,14.5z
			 M20.2,14.5c0-0.3-0.3-0.6-0.6-0.6c-0.3,0-0.6,0.3-0.6,0.6c0,0.3,0.2,0.6,0.6,0.6C19.9,15.1,20.2,14.8,20.2,14.5z"/>
		<path id="XMLID_38_" d="M19,21c-1.7,0-3.4,0-5.1,0c0.1-0.2,0.3-0.5,0.4-0.7c0,0,0.1,0,0.1,0c1.2,0,2.5,0,3.7,0c0.3,0,0.6,0,0.9,0
			C19,20.5,19,20.8,19,21z"/>
	</g>
</g>
</svg>
