<?xml version="1.0" encoding="utf-8"?>
<!-- Generator: Adobe Illustrator 19.0.0, SVG Export Plug-In . SVG Version: 6.00 Build 0)  -->
<svg version="1.1" xmlns="http://www.w3.org/2000/svg" xmlns:xlink="http://www.w3.org/1999/xlink" x="0px" y="0px"
	 viewBox="-947 529 24 24" style="enable-background:new -947 529 24 24;" xml:space="preserve">
<style type="text/css">
	.st0{display:none;}
	.st1{display:inline;}
</style>
<g id="Livello_1">
	<path d="M-944,542h8v-10h-8V542z M-944,550h8v-6h-8V550z M-934,532v6h8v-6H-934z"/>
	<path d="M-928.5,547.1c0.6,0,1.1-0.5,1.1-1.1s-0.5-1.1-1.1-1.1s-1.1,0.5-1.1,1.1S-929.1,547.1-928.5,547.1z M-931.5,547.1
		c0.6,0,1.1-0.5,1.1-1.1s-0.5-1.1-1.1-1.1s-1.1,0.5-1.1,1.1S-932.1,547.1-931.5,547.1z M-931.5,547.8c-0.8,0-2.5,0.4-2.5,1.3v0.9
		h5.1v-0.9C-928.9,548.2-930.6,547.8-931.5,547.8z M-928.5,547.8c-0.1,0-0.2,0-0.4,0c0.4,0.3,0.7,0.7,0.7,1.3v0.9h2.2v-0.9
		C-926,548.2-927.7,547.8-928.5,547.8z"/>
</g>
<g id="Livello_1_copia" class="st0">
	<path class="st1" d="M-944,542h8v-10h-8V542z M-944,550h8v-6h-8V550z M-934,550h8v-10h-8V550z M-934,532v6h8v-6H-934z"/>
</g>
</svg>
