<?xml version="1.0" encoding="utf-8"?>
<!-- Generator: Adobe Illustrator 19.0.0, SVG Export Plug-In . SVG Version: 6.00 Build 0)  -->
<svg version="1.1" id="Livello_1" xmlns="http://www.w3.org/2000/svg" xmlns:xlink="http://www.w3.org/1999/xlink" x="0px" y="0px"
	 viewBox="-947 529 24 24" style="enable-background:new -947 529 24 24;" xml:space="preserve">
<style type="text/css">
	.st0{fill:none;}
</style>
<path class="st0" d="M-947,529h24v24h-24V529z"/>
<path d="M-938.3,533.7l-0.2-0.9h-4.2v8h0.9v-3.3h2.6l0.2,0.9h3.3v-4.7H-938.3z"/>
<path d="M-928,542h-1.7c-0.2-0.5-0.6-0.8-1.1-0.8c-0.5,0-1,0.3-1.1,0.8h-1.7c-0.4,0-0.8,0.4-0.8,0.8v5.6c0,0.4,0.4,0.8,0.8,0.8h5.6
	c0.4,0,0.8-0.4,0.8-0.8v-5.6C-927.2,542.4-927.5,542-928,542z M-930.8,542c0.2,0,0.4,0.2,0.4,0.4c0,0.2-0.2,0.4-0.4,0.4
	c-0.2,0-0.4-0.2-0.4-0.4C-931.2,542.2-931,542-930.8,542z M-930,547.6h-2.8v-0.8h2.8V547.6z M-928.8,546h-4v-0.8h4V546z
	 M-928.8,544.4h-4v-0.8h4V544.4z"/>
<rect x="-943.5" y="540.6" transform="matrix(0.7071 -0.7071 0.7071 0.7071 -656.3999 -502.6896)" width="17" height="0.8"/>
</svg>
