<?xml version="1.0" encoding="utf-8"?>
<!-- Generator: Adobe Illustrator 19.0.0, SVG Export Plug-In . SVG Version: 6.00 Build 0)  -->
<svg version="1.1" id="Livello_1" xmlns="http://www.w3.org/2000/svg" xmlns:xlink="http://www.w3.org/1999/xlink" x="0px" y="0px"
	 viewBox="-583 408.9 24 24" style="enable-background:new -583 408.9 24 24;" xml:space="preserve">
<g>
	<g>
		<g>
			<path d="M-560.5,425.4h-0.8c-0.2,0-0.4-0.2-0.4-0.4v-1.3c0-1.8-0.5-3.4-1.3-4.9l-4.5,1.7h-0.1c-0.1,0-0.2,0-0.3-0.1
				c-0.1-0.1-0.1-0.2-0.1-0.4l1.5-4.7c-0.5-0.3-1-0.5-1.5-0.7v-0.1c0-0.6-0.5-1.1-1.1-1.1h-1.5v5.2c0,0.2-0.2,0.4-0.4,0.4
				s-0.4-0.2-0.4-0.4v-5.2h-1.5c-0.6,0-1.1,0.5-1.1,1.1v0.1c-0.6,0.2-1.1,0.5-1.6,0.8l1.6,4.6c0,0.1,0,0.3-0.1,0.4
				c-0.1,0.1-0.2,0.1-0.3,0.1h-0.1l-4.7-1.6c-0.8,1.4-1.2,2.9-1.2,4.6v1.5c0,0.2-0.2,0.4-0.4,0.4h-0.7c-0.2,0-0.4,0.2-0.4,0.4v2.3
				c0,0.2,0.2,0.4,0.4,0.4h21c0.2,0,0.4-0.2,0.4-0.4v-2.3C-560.1,425.6-560.3,425.4-560.5,425.4z M-564.6,426.1h-12.8
				c-0.2,0-0.4-0.2-0.4-0.4s0.2-0.4,0.4-0.4h12.7c0.2,0,0.4,0.2,0.4,0.4S-564.4,426.1-564.6,426.1z"/>
			<path id="XMLID_2_" d="M-576.3,415.8c-1,0.7-1.8,1.5-2.5,2.5l3.8,1.3L-576.3,415.8z"/>
			<path id="XMLID_1_" d="M-563.4,418.2c-0.7-1-1.5-1.8-2.5-2.4l-1.1,3.7L-563.4,418.2z"/>
		</g>
	</g>
</g>
</svg>
