<?xml version="1.0" encoding="utf-8"?>
<!-- Generator: Adobe Illustrator 19.0.0, SVG Export Plug-In . SVG Version: 6.00 Build 0)  -->
<svg version="1.1" id="Livello_1" xmlns="http://www.w3.org/2000/svg" xmlns:xlink="http://www.w3.org/1999/xlink" x="0px" y="0px"
	 viewBox="-408 583.5 24 24" style="enable-background:new -408 583.5 24 24;" xml:space="preserve">
<g>
	<g>
		<polygon points="-387.5,592.7 -387.5,590.8 -404.5,590.8 -404.5,592.7 -403.1,592.7 -401.2,592.7 		"/>
		<rect x="-404.5" y="587.1" width="17" height="1.9"/>
		<path d="M-387.5,602.3c-0.5,0.7-1.1,1.3-1.8,1.8h1.8V602.3z"/>
		<path d="M-397.7,598.4h-6.8v1.9h6.8c-0.1-0.3-0.1-0.6-0.1-0.9C-397.8,599-397.7,598.7-397.7,598.4z"/>
		<path d="M-397,602.1h-7.5v1.9h9.4C-395.9,603.6-396.5,602.9-397,602.1z"/>
		<path d="M-387.5,596.4v-1.8h-1.8C-388.6,595.1-388,595.7-387.5,596.4z"/>
		<path d="M-395.1,594.6h-6.1h-1.9h-1.4v1.9h7.5C-396.5,595.7-395.9,595.1-395.1,594.6z"/>
	</g>
	<path d="M-390.2,597.3c-0.6-0.6-1.3-0.8-2-0.8v2.8l-2,2c1.1,1.1,2.9,1.1,4,0C-389.1,600.2-389.1,598.4-390.2,597.3z M-392.2,594.6
		c-2.6,0-4.7,2.1-4.7,4.7s2.1,4.7,4.7,4.7s4.7-2.1,4.7-4.7S-389.6,594.6-392.2,594.6z M-392.2,603.1c-2.1,0-3.8-1.7-3.8-3.8
		s1.7-3.8,3.8-3.8c2.1,0,3.8,1.7,3.8,3.8S-390.1,603.1-392.2,603.1z"/>
</g>
</svg>
