<?xml version="1.0" encoding="utf-8"?>
<!-- Generator: Adobe Illustrator 19.0.0, SVG Export Plug-In . SVG Version: 6.00 Build 0)  -->
<svg version="1.1" id="Livello_1" xmlns="http://www.w3.org/2000/svg" xmlns:xlink="http://www.w3.org/1999/xlink" x="0px" y="0px"
	 viewBox="0 0 24 24" style="enable-background:new 0 0 24 24;" xml:space="preserve">
<g id="iibsdw_1_">
	<g id="XMLID_1_">
		<path id="XMLID_42_" d="M8.1,18.8c1.9-3.1,3.8-6.2,5.8-9.3c-0.1,0-0.1,0-0.2,0c-0.9,0-1.9,0-2.8,0c-0.1,0-0.2,0-0.3,0.1
			c-0.7,0.4-1.3,0.4-2,0.1c-0.1-0.1-0.2,0-0.3,0.1c-0.7,0.7-1.4,1.4-2,2.1C5.5,11,4.7,10.2,4,9.4c0.2-0.2,0.5-0.5,0.8-0.8
			c0.5,0.3,0.9,0.7,1.4,1C6.6,9.2,7,8.9,7.3,8.5c0,0,0.1-0.1,0-0.2c-0.2-0.5-0.2-1,0-1.5c0-0.1,0-0.2,0-0.2C7,6.2,6.6,5.9,6.2,5.5
			c-0.5,0.4-1,0.7-1.5,1C4.5,6.2,4.2,6,3.9,5.7c0.8-0.8,1.5-1.5,2.3-2.3C7,4.1,7.7,4.8,8.4,5.5c0.4-0.1,0.8-0.2,1.1-0.2
			c0.4,0,0.8,0.1,1.2,0.3c0.1,0.1,0.3,0.1,0.4,0.1c1,0,2.1,0,3.1,0c0.1,0,0.2,0,0.3,0c-0.7,1.2-0.8,2.3-0.1,3.5
			c0.6,1.2,1.7,1.7,3,1.7c-0.1,0.1-0.1,0.2-0.1,0.2c-0.6,0.9-1.1,1.8-1.7,2.7c-0.1,0.1-0.1,0.2,0,0.4c0.3,0.4,0.5,0.8,0.8,1.2
			c0.1,0.1,0.1,0.2,0,0.3c-0.6,1-1.1,1.9-1.7,2.9c-0.1,0.1-0.1,0.2-0.3,0.2C12.4,18.8,10.3,18.8,8.1,18.8
			C8.2,18.8,8.2,18.8,8.1,18.8z M10.2,7.6c0-0.4-0.3-0.7-0.7-0.7c-0.4,0-0.7,0.3-0.7,0.7c0,0.4,0.3,0.7,0.7,0.7
			C9.9,8.3,10.2,8,10.2,7.6z"/>
		<path id="XMLID_39_" d="M20.1,7.6c0,1.6-1.3,2.8-2.8,2.8c-1.6,0-2.9-1.3-2.9-2.8c0-1.6,1.3-2.8,2.8-2.8C18.8,4.7,20.1,6,20.1,7.6z
			 M18.4,7.6c0-0.6-0.5-1.1-1.1-1.1c-0.6,0-1.1,0.5-1.1,1.1c0,0.6,0.5,1.2,1.1,1.2C17.9,8.7,18.4,8.2,18.4,7.6z"/>
		<path id="XMLID_38_" d="M16.1,20.6c-3.4,0-6.9,0-10.3,0c0.3-0.5,0.5-0.9,0.8-1.4c0-0.1,0.2-0.1,0.2-0.1c2.5,0,4.9,0,7.4,0
			c0.6,0,1.2,0,1.8,0C16.1,19.7,16.1,20.1,16.1,20.6z"/>
	</g>
</g>
</svg>
