<?xml version="1.0" encoding="utf-8"?>
<!-- Generator: Adobe Illustrator 19.0.0, SVG Export Plug-In . SVG Version: 6.00 Build 0)  -->
<svg version="1.1" id="Livello_1" xmlns="http://www.w3.org/2000/svg" xmlns:xlink="http://www.w3.org/1999/xlink" x="0px" y="0px"
	 viewBox="-408 583.5 24 24" style="enable-background:new -408 583.5 24 24;" xml:space="preserve">
<path d="M-392.2,596c-0.9-0.8-2.2-1.2-3.4-1.5c-2.3-0.6-3-1.2-3-2.2c0-1.1,1-1.8,2.7-1.8c1.8,0,2.4,0.8,2.5,2.1h2.2
	c-0.1-1.7-1.1-3.3-3.2-3.8v-2.2h-3v2.2c-1.9,0.4-3.5,1.7-3.5,3.6c0,2.3,1.9,3.5,4.7,4.1c2.5,0.6,3,1.5,3,2.4c0,0.2,0,0.3-0.1,0.5
	h1.1V596z"/>
<path d="M-396.7,600.6c-1.5-0.2-2.1-1-2.2-2h-2.2c0.1,2.2,1.8,3.4,3.7,3.8v2.2h3v-2.2c0.1,0,0.3-0.1,0.4-0.1h-2.7V600.6z"/>
<path d="M-385.4,601.6h-4.5v4.5h-1.5v-4.5h-4.5v-1.5h4.5v-4.5h1.5v4.5h4.5V601.6z"/>
</svg>
