<?xml version="1.0" encoding="utf-8"?>
<!-- Generator: Adobe Illustrator 19.0.0, SVG Export Plug-In . SVG Version: 6.00 Build 0)  -->
<svg version="1.1" id="Livello_1" xmlns="http://www.w3.org/2000/svg" xmlns:xlink="http://www.w3.org/1999/xlink" x="0px" y="0px"
	 viewBox="-7144 286.3 24 24" style="enable-background:new -7144 286.3 24 24;" xml:space="preserve">
<style type="text/css">
	.st0{display:none;}
	.st1{display:inline;fill:#00D956;}
	.st2{enable-background:new    ;}
</style>
<g id="Livello_2" class="st0">
	<circle class="st1" cx="-8619" cy="1787.3" r="12"/>
</g>
<text transform="matrix(1 0 0 1 -7202.7256 349.921)" style="font-family:'CharlevoixPro-Bold'; font-size:23px;">ABCDEFGHIJKLMNOPQRSTUVWXYZ</text>
<g>
	<text transform="matrix(1 0 0 1 -7034 299.56)" style="font-family:'CharlevoixPro-Bold'; font-size:23px;">G</text>
</g>
<g>
	<g>
		<path d="M-7125.5,306.5h-2.2c-0.1,0-0.2,0-0.3-0.1l-6.5-8.3c-0.1-0.2-0.3-0.1-0.3,0.1v8.1c0,0.1-0.1,0.2-0.2,0.2h-3.4
			c-0.1,0-0.2-0.1-0.2-0.2v-15.9c0-0.1,0.1-0.2,0.2-0.2h2.2c0.1,0,0.2,0,0.3,0.1l6.5,8.3c0.1,0.2,0.3,0.1,0.3-0.1v-8.1
			c0-0.1,0.1-0.2,0.2-0.2h3.4c0.1,0,0.2,0.1,0.2,0.2v15.9C-7125.3,306.4-7125.4,306.5-7125.5,306.5z"/>
	</g>
</g>
</svg>
