<?xml version="1.0" encoding="utf-8"?>
<!-- Generator: Adobe Illustrator 19.0.0, SVG Export Plug-In . SVG Version: 6.00 Build 0)  -->
<svg version="1.1" id="Capa_1" xmlns="http://www.w3.org/2000/svg" xmlns:xlink="http://www.w3.org/1999/xlink" x="0px" y="0px"
	 viewBox="470 0 24 24" style="enable-background:new 470 0 24 24;" xml:space="preserve">
<style type="text/css">
	.st0{fill:none;}
	.st1{fill:#FFFFFF;}
</style>
<g>
	<path class="st0" d="M481.7,11.3c0-0.7-0.6-1.3-1.3-1.3h-4.8c-0.7,0-1.3,0.6-1.3,1.3v5.8c0,0.7,0.6,1.3,1.3,1.3h4.8
		c0.7,0,1.3-0.6,1.3-1.3h0V11.3z M481.1,17.1c0,0.4-0.3,0.7-0.7,0.7h-4.8c-0.4,0-0.7-0.3-0.7-0.7v-5.8c0-0.4,0.3-0.7,0.7-0.7h4.8
		c0.4,0,0.7,0.3,0.7,0.7V17.1z"/>
	<circle class="st0" cx="482" cy="6.9" r="1.3"/>
	<path class="st0" d="M479.5,15.5C479.5,15.4,479.5,15.4,479.5,15.5c-0.4,0.3-0.9,0.6-1.4,0.6c-0.5,0-1-0.2-1.4-0.6c0,0,0,0,0,0
		c-0.4,0.3-0.7,0.8-0.9,1.4c0,0.1,0,0.1,0.1,0.2c0,0.1,0.1,0.1,0.2,0.1h4.1c0.1,0,0.1,0,0.2-0.1c0-0.1,0.1-0.1,0.1-0.2
		C480.2,16.3,479.9,15.8,479.5,15.5z"/>
	<ellipse class="st0" cx="478.1" cy="13.2" rx="1.5" ry="2"/>
	<path d="M490,8.6h-4.8V7.5c0-1.8-1.4-3.2-3.2-3.2c-1.8,0-3.2,1.4-3.2,3.2v1.2H474c-0.5,0-1,0.4-1,1v9.2c0,0.5,0.4,1,1,1H490
		c0.5,0,1-0.4,1-1V9.6C491,9.1,490.6,8.6,490,8.6z M480.5,18.4h-4.8c-0.7,0-1.3-0.6-1.3-1.3v-5.8c0-0.7,0.6-1.3,1.3-1.3h4.8
		c0.7,0,1.3,0.6,1.3,1.3v5.8h0C481.7,17.8,481.2,18.4,480.5,18.4z M482,8.2c-0.7,0-1.3-0.6-1.3-1.3c0-0.7,0.6-1.3,1.3-1.3
		c0.7,0,1.3,0.6,1.3,1.3C483.3,7.6,482.7,8.2,482,8.2z M488.5,17.1h-1.8l-0.9-3.8l0,3.8h-1.6v-5.9h2l0.8,3.4l0-3.4h1.6V17.1z"/>
	<path d="M480.5,10.6h-4.8c-0.4,0-0.7,0.3-0.7,0.7v5.8c0,0.4,0.3,0.7,0.7,0.7h4.8c0.4,0,0.7-0.3,0.7-0.7v-5.8
		C481.1,10.9,480.8,10.6,480.5,10.6z M478.1,11.2c0.9,0,1.5,0.9,1.5,2c0,1.1-0.7,2-1.5,2c-0.9,0-1.5-0.9-1.5-2
		C476.5,12.1,477.2,11.2,478.1,11.2z M480.3,17.1c0,0.1-0.1,0.1-0.2,0.1H476c-0.1,0-0.1,0-0.2-0.1c0-0.1-0.1-0.1-0.1-0.2
		c0.1-0.6,0.4-1.1,0.9-1.4c0,0,0,0,0,0c0.4,0.4,0.9,0.6,1.4,0.6c0.5,0,1-0.2,1.4-0.6c0,0,0,0,0,0c0.4,0.3,0.7,0.8,0.9,1.4
		C480.4,16.9,480.3,17,480.3,17.1z"/>
</g>
<g>
	<path class="st1" d="M500.4,18.4c-1.3,0-1.9-0.2-1.9-0.7v-1.8h1.9v1.8c0,0.1,0.1,0.1,0.2,0.1c0.1,0,0.2,0,0.2-0.1v-1.5
		c0-0.2,0-0.2-0.3-0.3l-1.1-0.4c-0.6-0.2-0.9-0.5-0.9-0.9v-1.3c0-0.4,0.5-0.7,1.9-0.7h0.4c1.4,0,1.8,0.3,1.8,0.7v1.6h-1.9v-1.6
		c0-0.1-0.1-0.1-0.2-0.1c-0.1,0-0.2,0-0.2,0.1v1.3c0,0.2,0.1,0.2,0.3,0.3l1,0.4c0.7,0.3,1,0.5,1,0.9v1.5c0,0.5-0.6,0.8-2,0.8H500.4z
		"/>
</g>
</svg>
