<?xml version="1.0" encoding="utf-8"?>
<!-- Generator: Adobe Illustrator 19.0.0, SVG Export Plug-In . SVG Version: 6.00 Build 0)  -->
<svg version="1.1" id="Livello_1" xmlns="http://www.w3.org/2000/svg" xmlns:xlink="http://www.w3.org/1999/xlink" x="0px" y="0px"
	 viewBox="-609 370.9 100 100" style="enable-background:new -609 370.9 100 100;" xml:space="preserve">
<g>
	<g>
		<g>
			<g>
				<path d="M-561,403.2h-1.1c-0.3,0-0.6-0.3-0.6-0.6v-1.8c0-2.5-0.7-4.8-1.8-6.9l-6.3,2.4h-0.1c-0.1,0-0.3,0-0.4-0.1
					c-0.1-0.1-0.1-0.3-0.1-0.6l2.1-6.6c-0.7-0.4-1.4-0.7-2.1-1V388c0-0.8-0.7-1.5-1.5-1.5h-2.1v7.3c0,0.3-0.3,0.6-0.6,0.6
					s-0.6-0.3-0.6-0.6v-7.3h-2.1c-0.8,0-1.5,0.7-1.5,1.5v0.1c-0.8,0.3-1.5,0.7-2.2,1.1l2.2,6.4c0,0.1,0,0.4-0.1,0.6
					c-0.1,0.1-0.3,0.1-0.4,0.1h-0.1l-6.6-2.2c-1.1,2-1.7,4.1-1.7,6.4v2.1c0,0.3-0.3,0.6-0.6,0.6h-1c-0.3,0-0.6,0.3-0.6,0.6v3.2
					c0,0.3,0.3,0.6,0.6,0.6h29.4c0.3,0,0.6-0.3,0.6-0.6v-3.2C-560.4,403.5-560.7,403.2-561,403.2z M-566.7,404.2h-17.9
					c-0.3,0-0.6-0.3-0.6-0.6s0.3-0.6,0.6-0.6h17.8c0.3,0,0.6,0.3,0.6,0.6S-566.4,404.2-566.7,404.2z"/>
				<path id="XMLID_2_" d="M-583.1,389.8c-1.4,1-2.5,2.1-3.5,3.5l5.3,1.8L-583.1,389.8z"/>
				<path id="XMLID_1_" d="M-565,393.2c-1-1.4-2.1-2.5-3.5-3.4l-1.5,5.2L-565,393.2z"/>
			</g>
		</g>
	</g>
	<g>
		<g>
			<g>
				<path d="M-527.6,403.2h-1.1c-0.3,0-0.6-0.3-0.6-0.6v-1.8c0-2.5-0.7-4.8-1.8-6.9l-6.3,2.4h-0.1c-0.1,0-0.3,0-0.4-0.1
					c-0.1-0.1-0.1-0.3-0.1-0.6l2.1-6.6c-0.7-0.4-1.4-0.7-2.1-1V388c0-0.8-0.7-1.5-1.5-1.5h-2.1v7.3c0,0.3-0.3,0.6-0.6,0.6
					c-0.3,0-0.6-0.3-0.6-0.6v-7.3h-2.1c-0.8,0-1.5,0.7-1.5,1.5v0.1c-0.8,0.3-1.5,0.7-2.2,1.1l2.2,6.4c0,0.1,0,0.4-0.1,0.6
					c-0.1,0.1-0.3,0.1-0.4,0.1h-0.1l-6.6-2.2c-1.1,2-1.7,4.1-1.7,6.4v2.1c0,0.3-0.3,0.6-0.6,0.6h-1c-0.3,0-0.6,0.3-0.6,0.6v3.2
					c0,0.3,0.3,0.6,0.6,0.6h29.4c0.3,0,0.6-0.3,0.6-0.6v-3.2C-527.1,403.5-527.4,403.2-527.6,403.2z M-533.4,404.2h-17.9
					c-0.3,0-0.6-0.3-0.6-0.6s0.3-0.6,0.6-0.6h17.8c0.3,0,0.6,0.3,0.6,0.6S-533.1,404.2-533.4,404.2z"/>
				<path id="XMLID_4_" d="M-549.8,389.8c-1.4,1-2.5,2.1-3.5,3.5l5.3,1.8L-549.8,389.8z"/>
				<path id="XMLID_3_" d="M-531.7,393.2c-1-1.4-2.1-2.5-3.5-3.4l-1.5,5.2L-531.7,393.2z"/>
			</g>
		</g>
	</g>
	<g>
		<path d="M-542.3,422c6.7,0,12.1-5.3,12.4-12h-24.9C-554.5,416.7-549.1,422-542.3,422z"/>
		<path d="M-575.7,430.3c-9.7,0-29.2,4.9-29.2,14.6v10.4h58.3v-10.4C-546.5,435.2-565.9,430.3-575.7,430.3z"/>
		<path d="M-542.3,430.3c-1.2,0-2.6,0.1-4,0.2c4.8,3.5,8.2,8.2,8.2,14.4v10.4h25v-10.4C-513.2,435.2-532.6,430.3-542.3,430.3z"/>
		<path d="M-575.7,422c6.7,0,12.1-5.3,12.4-12h-24.9C-587.8,416.7-582.4,422-575.7,422z"/>
	</g>
</g>
</svg>
