<?xml version="1.0" encoding="utf-8"?>
<!-- Generator: Adobe Illustrator 19.0.0, SVG Export Plug-In . SVG Version: 6.00 Build 0)  -->
<svg version="1.1" id="Livello_1" xmlns="http://www.w3.org/2000/svg" xmlns:xlink="http://www.w3.org/1999/xlink" x="0px" y="0px"
	 viewBox="-621 370.9 100 100" style="enable-background:new -621 370.9 100 100;" xml:space="preserve">
<g>
	<path d="M-587.7,420.9c6.9,0,12.5-5.6,12.5-12.5c0-6.9-5.5-12.5-12.5-12.5c-6.9,0-12.5,5.6-12.5,12.5
		C-600.2,415.3-594.6,420.9-587.7,420.9z"/>
	<path d="M-596,453.9l4-22.8l-0.8-1.4c-10.2,1.3-24.1,6-24.1,14.3v10.4h20.9c0-0.1,0-0.2,0-0.3V453.9z"/>
	<path d="M-554.3,429.3c-1.2,0-2.6,0.1-4,0.2c4.8,3.5,8.2,8.2,8.2,14.4v10.4h25v-10.4C-525.1,434.1-544.6,429.3-554.3,429.3z"/>
	<path d="M-583.3,429.5l-0.5,0.9l4.3,23.4v0.1c0,0.1,0,0.2,0,0.3h21v-10.4C-558.5,435.5-573,430.7-583.3,429.5z"/>
	<path d="M-554.3,420.9c6.9,0,12.5-5.6,12.5-12.5c0-6.9-5.5-12.5-12.5-12.5s-12.5,5.6-12.5,12.5
		C-566.8,415.3-561.2,420.9-554.3,420.9z"/>
</g>
<g>
	<path d="M-585.1,429.8l2.6-5h-11.1l2.6,5H-585.1z"/>
	<path d="M-585.1,431.3h-5.5l-3.9,22.7c0,0.4,0,1.1,0.4,1.5l5,6.1c0.4,0.4,0.9,0.7,1.3,0.7c0.4,0,1.1-0.2,1.3-0.7l5-6.1
		c0.4-0.4,0.4-0.9,0.4-1.5L-585.1,431.3z"/>
</g>
</svg>
