<?xml version="1.0" encoding="utf-8"?>
<!-- Generator: Adobe Illustrator 19.0.0, SVG Export Plug-In . SVG Version: 6.00 Build 0)  -->
<svg version="1.1" id="Livello_1" xmlns="http://www.w3.org/2000/svg" xmlns:xlink="http://www.w3.org/1999/xlink" x="0px" y="0px"
	 viewBox="-285 408.9 24 24" style="enable-background:new -285 408.9 24 24;" xml:space="preserve">
<style type="text/css">
	.st0{fill:none;}
</style>
<g>
	<rect x="-271.3" y="422.3" class="st0" width="2.1" height="0.4"/>
	<path d="M-276.5,420c-2.8,0.4-6.5,1.7-6.5,3.9v2h5.9l0.9-5.4L-276.5,420z"/>
	<circle cx="-275" cy="413.9" r="4"/>
	<polygon points="-275.7,420.3 -274.3,420.3 -273.7,419.1 -276.3,419.1 	"/>
	<path d="M-275.7,420.6l-0.9,5.3c0,0.1,0,0.2,0.1,0.3l1.2,1.4c0.1,0.1,0.2,0.2,0.3,0.2s0.2-0.1,0.3-0.2l1.2-1.4
		c0.1-0.1,0.1-0.2,0.1-0.3l-0.9-5.3H-275.7z"/>
	<path d="M-270.1,424.1c0.1-0.4,0.4-0.7,0.7-1h-1.9v-0.2h2.1v0.1c0.2-0.1,0.4-0.1,0.6-0.1h1.3c-0.9-1.5-3.9-2.5-6.2-2.8l-0.3,0.5
		l0.9,5.3h1.5v-1.7H-270.1z M-271.3,422.3h2.1v0.4h-2.1V422.3z"/>
</g>
<path d="M-269.9,425.2h-0.8v5.8c0,0.5,0.4,0.8,0.8,0.8h5.8V431h-5.8V425.2z M-263.3,423.6h-5c-0.5,0-0.8,0.4-0.8,0.8v5
	c0,0.5,0.4,0.8,0.8,0.8h5c0.5,0,0.8-0.4,0.8-0.8v-5C-262.5,423.9-262.8,423.6-263.3,423.6z M-263.7,427.3h-4.1v-0.8h4.1V427.3z
	 M-265.4,428.9h-2.5v-0.8h2.5V428.9z M-263.7,425.6h-4.1v-0.8h4.1V425.6z"/>
</svg>
