<?xml version="1.0" encoding="utf-8"?>
<!-- Generator: Adobe Illustrator 19.0.0, SVG Export Plug-In . SVG Version: 6.00 Build 0)  -->
<svg version="1.1" id="Livello_1" xmlns="http://www.w3.org/2000/svg" xmlns:xlink="http://www.w3.org/1999/xlink" x="0px" y="0px"
	 viewBox="-7144 286.3 24 24" style="enable-background:new -7144 286.3 24 24;" xml:space="preserve">
<style type="text/css">
	.st0{fill:none;}
</style>
<g>
	<path class="st0" d="M-7128.5,294.3v-2.1l-1.3,0.7C-7129.3,293.3-7128.9,293.7-7128.5,294.3z"/>
	<path d="M-7128.5,294.3c-0.3-0.6-0.8-1-1.3-1.4l-2.1,1.2l-2.1-1.2c-1.1,0.7-1.9,2-1.9,3.4c0,2.2,1.8,4,4,4s4-1.8,4-4
		c0-0.5-0.1-1-0.3-1.4h-0.3V294.3z"/>
	<path d="M-7132,302.3c-2.7,0-8,1.3-8,4v2h16v-2C-7124,303.6-7129.3,302.3-7132,302.3z"/>
	<path d="M-7128.5,294.9h0.3c-0.1-0.2-0.2-0.4-0.3-0.6V294.9z"/>
</g>
<path d="M-7132,287.7l-5.1,2.8l5.1,2.8l4.2-2.3v3.2h0.9v-3.7L-7132,287.7z"/>
</svg>
