<?xml version="1.0" encoding="utf-8"?>
<svg version="1.1" id="Livello_1" xmlns="http://www.w3.org/2000/svg" xmlns:xlink="http://www.w3.org/1999/xlink" x="0px" y="0px" viewBox="-583 408.9 24 24" style="enable-background:new -583 408.9 24 24;" xml:space="preserve">
	<path d="M-566.3,415.5h-0.4c-0.1,0-0.2-0.1-0.2-0.2v-0.6c0-0.8-0.2-1.5-0.6-2.2l-2,0.8h0c0,0-0.1,0-0.1,0c0,0,0-0.1,0-0.2
		l0.7-2.1c-0.2-0.1-0.4-0.2-0.7-0.3v0c0-0.3-0.2-0.5-0.5-0.5h-0.7v2.3c0,0.1-0.1,0.2-0.2,0.2s-0.2-0.1-0.2-0.2v-2.3h-0.7
		c-0.3,0-0.5,0.2-0.5,0.5v0c-0.3,0.1-0.5,0.2-0.7,0.4l0.7,2c0,0,0,0.1,0,0.2c0,0-0.1,0-0.1,0h0l-2.1-0.7c-0.4,0.6-0.5,1.3-0.5,2
		v0.7c0,0.1-0.1,0.2-0.2,0.2h-0.3c-0.1,0-0.2,0.1-0.2,0.2v1c0,0.1,0.1,0.2,0.2,0.2h9.4c0.1,0,0.2-0.1,0.2-0.2v-1
		C-566.1,415.6-566.2,415.5-566.3,415.5z M-568.1,415.8h-5.7c-0.1,0-0.2-0.1-0.2-0.2s0.1-0.2,0.2-0.2h5.7c0.1,0,0.2,0.1,0.2,0.2
		S-568.1,415.8-568.1,415.8z"/>
	<path id="XMLID_2_" d="M-573.4,411.2c-0.4,0.3-0.8,0.7-1.1,1.1l1.7,0.6L-573.4,411.2z"/>
	<path id="XMLID_1_" d="M-567.6,412.3c-0.3-0.4-0.7-0.8-1.1-1.1l-0.5,1.6L-567.6,412.3z"/>
	<path d="M-571,420.9c2,0,3.7-1.5,3.9-3.4h-7.9C-574.7,419.4-573,420.9-571,420.9z"/>
	<path d="M-571,422.9c-2.7,0-8,1.3-8,4v2h16v-2C-563,424.2-568.3,422.9-571,422.9z"/>
</svg>
