<?xml version="1.0" encoding="utf-8"?>
<!-- Generator: Adobe Illustrator 19.0.0, SVG Export Plug-In . SVG Version: 6.00 Build 0)  -->
<svg version="1.1" id="Livello_1" xmlns="http://www.w3.org/2000/svg" xmlns:xlink="http://www.w3.org/1999/xlink" x="0px" y="0px"
	 viewBox="-583 408.9 24 24" style="enable-background:new -583 408.9 24 24;" xml:space="preserve">
<g>
	<path d="M-572.2,423.5L-572.2,423.5l-0.3-0.5c-2.8,0.4-6.5,1.7-6.5,3.9v2h5.9c0,0,0,0,0,0L-572.2,423.5z"/>
	<circle cx="-571" cy="416.9" r="4"/>
	<polygon points="-571.7,423.3 -570.3,423.3 -569.7,422.1 -572.3,422.1 	"/>
	<path d="M-571.6,423.6l-0.9,5.3c0,0.1,0,0.2,0.1,0.3l1.2,1.4c0.1,0.1,0.2,0.2,0.3,0.2c0.1,0,0.2-0.1,0.3-0.2l1.2-1.4
		c0.1-0.1,0.1-0.2,0.1-0.3l-0.9-5.3H-571.6z"/>
	<g>
		<path d="M-569.5,423l-0.3,0.5l0,0l0.9,5.3c0,0,0,0,0,0h5.9v-2C-563,424.7-566.7,423.4-569.5,423z M-565.2,426.1h-2.1v-0.2h2.1
			V426.1z M-565.2,425.7h-2.1v-0.4h2.1V425.7z"/>
	</g>
</g>
</svg>
