<?xml version="1.0" encoding="utf-8"?>
<!-- Generator: Adobe Illustrator 19.0.0, SVG Export Plug-In . SVG Version: 6.00 Build 0)  -->
<svg version="1.1" xmlns="http://www.w3.org/2000/svg" xmlns:xlink="http://www.w3.org/1999/xlink" x="0px" y="0px"
	 viewBox="-947 529 24 24" style="enable-background:new -947 529 24 24;" xml:space="preserve">
<style type="text/css">
	.st0{fill:none;}
	.st1{display:none;}
	.st2{display:inline;}
</style>
<g id="Livello_1">
	<g>
		<polygon class="st0" points="-934,538 -928.5,538 -934,532.5 		"/>
		<path d="M-933,531h-8c-1.1,0-2,0.9-2,2l0,16c0,1.1,0.9,2,2,2h12c1.1,0,2-0.9,2-2v-12L-933,531z M-934.5,541
			c0.2-0.2,0.3-0.3,0.6-0.4c0.2-0.1,0.5-0.2,0.7-0.2c0,0.1,0,0.1,0,0.2c0,0.4-0.2,0.8-0.5,1.2c-0.4,0.4-0.8,0.7-1.3,0.6
			c0,0,0-0.1,0-0.2C-935,541.8-934.8,541.3-934.5,541z M-931.7,546.8c-0.1,0.3-0.3,0.6-0.4,0.8c-0.2,0.3-0.4,0.6-0.6,0.7
			c-0.2,0.2-0.5,0.3-0.7,0.3c-0.2,0-0.4-0.1-0.7-0.2c-0.3-0.1-0.5-0.2-0.7-0.2c-0.2,0-0.5,0.1-0.8,0.2c-0.3,0.1-0.5,0.2-0.6,0.2
			c-0.3,0-0.5-0.1-0.8-0.3c-0.2-0.1-0.4-0.4-0.6-0.7c-0.3-0.4-0.5-0.8-0.6-1.3c-0.2-0.5-0.3-1-0.3-1.5c0-0.6,0.1-1,0.4-1.4
			c0.2-0.3,0.4-0.6,0.8-0.8s0.7-0.3,1-0.3c0.2,0,0.5,0.1,0.8,0.2c0.3,0.1,0.5,0.2,0.6,0.2c0.1,0,0.3-0.1,0.7-0.2
			c0.4-0.1,0.7-0.2,0.9-0.2c0.7,0.1,1.2,0.3,1.6,0.8c-0.6,0.4-0.9,0.9-0.9,1.6c0,0.5,0.2,1,0.6,1.3c0.2,0.2,0.4,0.3,0.6,0.4
			C-931.6,546.6-931.6,546.7-931.7,546.8z M-934,538v-5.5l5.5,5.5H-934z"/>
	</g>
</g>
<g id="Livello_2" class="st1">
	<path class="st2" d="M-941,531c-1.1,0-2,0.9-2,2l0,16c0,1.1,0.9,2,2,2h12c1.1,0,2-0.9,2-2v-12l-6-6H-941z M-934,538v-5.5l5.5,5.5
		H-934z"/>
</g>
</svg>
