<?xml version="1.0" encoding="utf-8"?>
<!-- Generator: Adobe Illustrator 19.0.0, SVG Export Plug-In . SVG Version: 6.00 Build 0)  -->
<svg version="1.1" id="Livello_1" xmlns="http://www.w3.org/2000/svg" xmlns:xlink="http://www.w3.org/1999/xlink" x="0px" y="0px"
	 viewBox="-583 408.9 24 24" style="enable-background:new -583 408.9 24 24;" xml:space="preserve">
<g>
	<path d="M-560,417.9l-11-6l-11,6l11,6l0.5-0.3v-1.2c0-0.8,0.6-1.5,1.4-1.6v-1h2.4v0.9h1.5l0.9-0.5v-0.5h0.9l1.4-0.8v0.8h0v1
		c0.8,0.1,1.4,0.8,1.4,1.6v3.5h0.5V417.9z"/>
	<path d="M-570.5,425.6l-0.5,0.3l-7-3.8v4l7,3.8l0.6-0.4c-0.1-0.2-0.1-0.4-0.1-0.6V425.6z"/>
</g>
<g>
	<path d="M-562.2,421.4h-0.5v-0.9h-0.9v0.9h-3.8v-0.9h-0.9v0.9h-0.5c-0.5,0-0.9,0.4-0.9,0.9v6.6c0,0.5,0.4,0.9,0.9,0.9h6.6
		c0.5,0,0.9-0.4,0.9-0.9v-6.6C-561.2,421.8-561.7,421.4-562.2,421.4z M-562.2,429h-6.6v-5.2h6.6V429z"/>
	<g>
		<g>
			<rect x="-567.9" y="424.5" width="0.9" height="0.9"/>
			<rect x="-566" y="424.5" width="0.9" height="0.9"/>
			<rect x="-564.1" y="424.5" width="0.9" height="0.9"/>
		</g>
		<g>
			<rect x="-567.9" y="425.9" width="0.9" height="0.9"/>
			<rect x="-566" y="425.9" width="0.9" height="0.9"/>
			<rect x="-564.1" y="425.9" width="0.9" height="0.9"/>
		</g>
		<g>
			<rect x="-567.9" y="427.3" width="0.9" height="0.9"/>
			<rect x="-566" y="427.3" width="0.9" height="0.9"/>
			<rect x="-564.1" y="427.3" width="0.9" height="0.9"/>
		</g>
	</g>
</g>
</svg>
