<?xml version="1.0" encoding="utf-8"?>
<!-- Generator: Adobe Illustrator 19.0.0, SVG Export Plug-In . SVG Version: 6.00 Build 0)  -->
<svg version="1.1" id="Livello_1" xmlns="http://www.w3.org/2000/svg" xmlns:xlink="http://www.w3.org/1999/xlink" x="0px" y="0px"
	 viewBox="-1 3 20 20" style="enable-background:new -1 3 20 20;" xml:space="preserve">
<g>
	<path d="M9.3,17.2c0-0.1,0-0.3,0-0.5s0-0.3,0-0.5l1-0.8c0.1-0.1,0.1-0.2,0.1-0.3l-1-1.7c-0.1-0.1-0.2-0.1-0.3-0.1L8,13.9
		c-0.3-0.2-0.5-0.3-0.8-0.5L7,12.2C7,12.1,6.9,12,6.7,12H4.8c-0.1,0-0.2,0.1-0.2,0.2l-0.2,1.3c-0.3,0.1-0.6,0.3-0.8,0.5l-1.2-0.5
		c-0.1,0-0.2,0-0.3,0.1l-1,1.7c-0.1,0.1,0,0.2,0.1,0.3l1,0.8c0,0.1,0,0.3,0,0.5c0,0.2,0,0.3,0,0.5l-1,0.8c-0.1,0.1-0.1,0.2-0.1,0.3
		l1,1.7c0.1,0.1,0.2,0.1,0.3,0.1l1.2-0.5c0.3,0.2,0.5,0.3,0.8,0.5l0.2,1.3c0,0.1,0.1,0.2,0.2,0.2h1.9c0.1,0,0.2-0.1,0.2-0.2l0.2-1.3
		c0.3-0.1,0.6-0.3,0.8-0.5l1.2,0.5c0.1,0,0.2,0,0.3-0.1l1-1.7c0.1-0.1,0-0.2-0.1-0.3C10.3,18,9.3,17.2,9.3,17.2z M5.8,18.5
		c-1,0-1.8-0.8-1.8-1.8S4.8,15,5.8,15s1.8,0.8,1.8,1.8S6.8,18.5,5.8,18.5z"/>
	<path d="M16.5,9.3c-0.1-0.1-0.2-0.2-0.3-0.3c-0.1-0.1-0.2-0.2-0.3-0.3L16,7.6c0-0.1-0.1-0.2-0.2-0.2l-1.6-0.4C14.1,6.9,14,7,14,7
		l-0.4,1.1c-0.3,0-0.5,0.1-0.8,0.2l-0.9-0.7c-0.1-0.1-0.2-0.1-0.3,0l-1.2,1.2c-0.1,0.1-0.1,0.2,0,0.3L11,10
		c-0.1,0.3-0.2,0.5-0.2,0.8l-1.1,0.4c-0.1,0-0.1,0.1-0.1,0.3l0.4,1.6c0,0.1,0.1,0.2,0.2,0.2l1.1-0.1c0.1,0.1,0.2,0.2,0.3,0.3
		c0.1,0.1,0.2,0.2,0.3,0.3l-0.1,1.1c0,0.1,0.1,0.2,0.2,0.2l1.6,0.4c0.1,0,0.2,0,0.3-0.1l0.4-1.1c0.3,0,0.5-0.1,0.8-0.2l0.9,0.7
		c0.1,0.1,0.2,0.1,0.3,0l1.2-1.2c0.1-0.1,0.1-0.2,0-0.3l-0.7-0.9c0.1-0.3,0.2-0.5,0.2-0.8l1.1-0.4c0.1,0,0.1-0.1,0.1-0.3l-0.4-1.6
		c0-0.1-0.1-0.2-0.2-0.2C17.6,9.2,16.5,9.3,16.5,9.3z M15.1,12.4c-0.6,0.6-1.6,0.6-2.3,0c-0.6-0.6-0.6-1.6,0-2.3
		c0.6-0.6,1.6-0.6,2.3,0C15.7,10.8,15.7,11.8,15.1,12.4z"/>
	<path d="M5.5,10.2c0.1,0,0.2,0,0.3,0s0.2,0,0.3,0l0.5,0.7c0,0.1,0.1,0.1,0.2,0L8,10.3c0.1,0,0.1-0.1,0.1-0.2L7.8,9.2
		C7.9,9,8,8.9,8.1,8.7L9,8.5c0.1,0,0.1-0.1,0.1-0.2V7C9.1,7,9.1,6.9,9,6.9L8.1,6.8C8,6.5,7.9,6.4,7.8,6.2l0.3-0.8
		c0-0.1,0-0.2-0.1-0.2L6.9,4.5c-0.1,0-0.2,0-0.2,0L6.1,5.2c-0.1,0-0.2,0-0.3,0s-0.2,0-0.3,0L4.9,4.5c0-0.1-0.1-0.1-0.2,0L3.6,5.2
		c-0.1,0-0.1,0.1-0.1,0.2l0.3,0.8C3.7,6.4,3.6,6.5,3.5,6.7L2.6,6.9C2.5,6.9,2.5,7,2.5,7v1.3c0,0.1,0.1,0.2,0.1,0.2l0.9,0.1
		C3.6,8.9,3.7,9,3.8,9.2L3.5,10c0,0.1,0,0.2,0.1,0.2l1.2,0.7c0.1,0,0.2,0,0.2,0C4.9,10.9,5.5,10.2,5.5,10.2z M4.5,7.7
		c0-0.7,0.6-1.2,1.2-1.2S7,7,7,7.7S6.5,9,5.8,9S4.5,8.4,4.5,7.7z"/>
</g>
</svg>
