<?xml version="1.0" encoding="utf-8"?>
<!-- Generator: Adobe Illustrator 19.0.0, SVG Export Plug-In . SVG Version: 6.00 Build 0)  -->
<svg version="1.1" id="Livello_1" xmlns="http://www.w3.org/2000/svg" xmlns:xlink="http://www.w3.org/1999/xlink" x="0px" y="0px"
	 viewBox="0 0 24 24" style="enable-background:new 0 0 24 24;" xml:space="preserve">
<style type="text/css">
	.st0{fill:#010002;}
</style>
<g>
	<g>
		<g>
			<path d="M-67.8,16.5h-0.8c-0.2,0-0.4-0.2-0.4-0.4v-1.3c0-1.8-0.5-3.4-1.3-4.9l-4.5,1.7c0,0-0.1,0-0.1,0c-0.1,0-0.2,0-0.3-0.1
				c-0.1-0.1-0.1-0.2-0.1-0.4l1.5-4.7c-0.5-0.3-1-0.5-1.5-0.7V5.6c0-0.6-0.5-1.1-1.1-1.1H-78v5.2c0,0.2-0.2,0.4-0.4,0.4
				c-0.2,0-0.4-0.2-0.4-0.4V4.5h-1.5c-0.6,0-1.1,0.5-1.1,1.1v0.1c-0.6,0.2-1.1,0.4-1.6,0.7l1.6,4.7c0,0.1,0,0.3-0.1,0.4
				c-0.1,0.1-0.2,0.1-0.3,0.1c0,0-0.1,0-0.1,0l-4.7-1.6c-0.8,1.4-1.2,2.9-1.2,4.6v1.5c0,0.2-0.2,0.4-0.4,0.4h-0.8
				c-0.2,0-0.4,0.2-0.4,0.4v2.3c0,0.2,0.2,0.4,0.4,0.4h21c0.2,0,0.4-0.2,0.4-0.4v-2.3C-67.5,16.7-67.6,16.5-67.8,16.5z M-72,17.2
				h-12.7c-0.2,0-0.4-0.2-0.4-0.4s0.2-0.4,0.4-0.4H-72c0.2,0,0.4,0.2,0.4,0.4S-71.8,17.2-72,17.2z"/>
			<path id="XMLID_2_" d="M-83.6,6.9c-1,0.7-1.8,1.5-2.5,2.5l3.8,1.3L-83.6,6.9z"/>
			<path id="XMLID_1_" d="M-70.7,9.3c-0.7-1-1.5-1.8-2.5-2.4l-1.2,3.8L-70.7,9.3z"/>
		</g>
	</g>
</g>
<g id="XMLID_128_">
	<circle id="XMLID_129_" cx="-43.3" cy="5.8" r="1.3"/>
	<path id="XMLID_130_" d="M-43.5,11.1c-0.4-0.3-1.8-1.2-1.8-1.2s0.6-1.6,0.6-2.5c0-0.9-0.9-1.2-1.4-1.2c-2.3,0-3.3,1.1-3.3,1.1
		L-51.3,6c0,0,0.1-0.2,0-0.5c-0.1-0.3-0.3-0.4-0.3-0.4s-0.4,0.6-0.4,0.6l-0.7-0.3l0.5,0.6l-0.4,0.6c0,0,0.2,0.1,0.4,0.1
		c0.2,0,0.6-0.3,0.6-0.3l4,2.9l0.9-0.4c0,0-0.1,0.9,0,1.3c0.1,0.4,0.9,0.8,2.5,1.5C-43,12.2-42.8,11.7-43.5,11.1z"/>
	<path id="XMLID_131_" d="M-44.2,18.4l-4.2-2.4c0.4-0.4,1.2-1.4,2-2.3c1.1-1.3,0.1-2.2-0.4-2.6c-0.4-0.3-3.7-2.6-3.7-2.6
		c-0.9,1.2,0,2.4,0.5,2.8c0.5,0.4,1.2,0.7,1.5,1c0.4,0.3,0.5,0.6,0.2,1c-0.2,0.3-1.1,1.4-1.5,1.9l-5-2.9c-0.3-0.2-0.7-0.1-0.8,0.2
		c-0.2,0.3-0.1,0.7,0.2,0.8l10.6,6.1c0.3,0.2,0.7,0.1,0.8-0.2C-43.8,18.9-43.9,18.5-44.2,18.4z"/>
</g>
<g id="XMLID_153_">
	<path id="XMLID_154_" class="st0" d="M-17.7,14.1V12h-2.1v4.3l2.1,0v-1.1h4.3v4.3h-4.3v-2.1h-3.2V8.8h-2.1V4.5h4.3v4.3h-1.1v2.1
		h2.1V9.9h4.3v4.3H-17.7z"/>
</g>
<g id="XMLID_503_">
	<g id="XMLID_504_">
		<polygon id="XMLID_501_" points="47.2,12.1 46.5,12.5 46.5,19.5 52.6,16 52.6,9 		"/>
		<polygon id="XMLID_500_" points="48.3,5.8 46,4.5 39.8,8.1 42.1,9.4 		"/>
		<polygon id="XMLID_499_" points="52.2,8.1 49.5,6.6 43.3,10.2 43.6,10.3 46,11.7 48.3,10.3 		"/>
		<polygon id="XMLID_498_" points="42.8,12.7 41.7,12.2 41.7,10.4 39.4,9 39.4,16 45.4,19.5 45.4,12.5 42.8,11 		"/>
	</g>
</g>
<g id="XMLID_570_">
	<path id="XMLID_237_" d="M7.2,19.5h9.6c0.5,0,0.9-0.4,0.9-0.9v-8.1c0-0.4-0.3-0.7-0.7-0.7h-4c-0.4,0-0.7-0.3-0.7-0.7V5.2
		c0-0.4-0.3-0.7-0.7-0.7H7.2c-0.5,0-0.9,0.4-0.9,0.9v1.2l6.2,6.2c0.2,0.2,0.3,0.4,0.4,0.6l0.7,2.2c0.1,0.2,0.1,0.4,0,0.6
		c0,0.2-0.1,0.4-0.2,0.5c-0.2,0.3-0.6,0.5-1,0.5c-0.1,0-0.2,0-0.3,0l-2.4-0.6c-0.3-0.1-0.5-0.2-0.7-0.4l-2.8-2.8v5.2
		C6.3,19.1,6.7,19.5,7.2,19.5z"/>
	<path id="XMLID_236_" d="M17.4,8.7c0.3,0,0.4-0.3,0.2-0.5L14,4.6c-0.2-0.2-0.5-0.1-0.5,0.2v3.6c0,0.2,0.1,0.3,0.3,0.3H17.4
		L17.4,8.7z"/>
	<path id="XMLID_235_" d="M4.7,6.7c-0.2,0-0.4,0.1-0.5,0.2L3.1,7.9c-0.3,0.3-0.3,0.8,0,1L4,9.9l2.1-2.1L5.2,6.8
		C5.1,6.7,4.9,6.7,4.7,6.7z"/>
	<polygon id="XMLID_234_" points="9.2,15.1 11.3,13 6.8,8.4 6.3,8.9 4.7,10.5 6.3,12.1 	"/>
	<path id="XMLID_233_" d="M12.4,16.3C12.4,16.3,12.4,16.3,12.4,16.3c0.3,0,0.4-0.2,0.3-0.4L12,13.7c0,0,0,0,0,0l-2,2c0,0,0,0,0,0
		L12.4,16.3z"/>
</g>
</svg>
