<?xml version="1.0" encoding="utf-8"?>
<!-- Generator: Adobe Illustrator 19.0.0, SVG Export Plug-In . SVG Version: 6.00 Build 0)  -->
<svg version="1.1" id="Livello_1" xmlns="http://www.w3.org/2000/svg" xmlns:xlink="http://www.w3.org/1999/xlink" x="0px" y="0px"
	 viewBox="-408 583.5 24 24" style="enable-background:new -408 583.5 24 24;" xml:space="preserve">
<style type="text/css">
	.st0{fill:none;}
</style>
<rect x="-401" y="598.5" class="st0" width="7" height="2"/>
<rect x="-401" y="594.5" class="st0" width="10" height="2"/>
<rect x="-401" y="590.5" class="st0" width="10" height="2"/>
<circle class="st0" cx="-396" cy="587.5" r="1"/>
<path d="M-388,597.2c0.2-0.2,0.5-0.3,0.8-0.3c0.1,0,0.1,0,0.2,0v-8.3c0-1.1-0.9-2-2-2h-4.2c-0.4-1.2-1.5-2-2.8-2s-2.4,0.8-2.8,2
	h-4.2c-1.1,0-2,0.9-2,2v14c0,1.1,0.9,2,2,2h8.3v-0.7L-388,597.2z M-396,586.5c0.5,0,1,0.5,1,1s-0.5,1-1,1s-1-0.5-1-1
	S-396.5,586.5-396,586.5z M-401,590.5h10v2h-10V590.5z M-401,594.5h10v2h-10V594.5z M-401,600.5v-2h7v2H-401z"/>
<path d="M-389,604.5c1.1,0,2-0.9,2-2v-0.9l-2.9,2.9H-389z"/>
<path d="M-394,604.2v1.7h1.7l5.1-5.1l-1.7-1.7L-394,604.2z M-385.8,599.4c0.2-0.2,0.2-0.5,0-0.7l-1.1-1.1c-0.2-0.2-0.5-0.2-0.7,0
	l-0.9,0.9l1.7,1.7C-386.6,600.3-385.8,599.4-385.8,599.4z"/>
</svg>
