<?xml version="1.0" encoding="utf-8"?>
<!-- Generator: Adobe Illustrator 19.0.0, SVG Export Plug-In . SVG Version: 6.00 Build 0)  -->
<svg version="1.1" id="Livello_1" xmlns="http://www.w3.org/2000/svg" xmlns:xlink="http://www.w3.org/1999/xlink" x="0px" y="0px"
	 viewBox="-408 583.5 24 24" style="enable-background:new -408 583.5 24 24;" xml:space="preserve">
<style type="text/css">
	.st0{fill:none;}
</style>
<path class="st0" d="M-408,583.5h24v24h-24V583.5z"/>
<g>
	<rect x="-401" y="594.5" class="st0" width="10" height="2"/>
	<rect x="-401" y="590.5" class="st0" width="10" height="2"/>
	<polygon class="st0" points="-394,599.7 -394,598.5 -401,598.5 -401,600.5 -394.7,600.5 -394.7,599.7 	"/>
	<circle class="st0" cx="-396" cy="587.5" r="1"/>
	<path d="M-394.7,602.4v-1.9h-6.3v-2h7v1.2h3.2v-3.9h2.7v3.9h1.1v-11.2c0-1.1-0.9-2-2-2h-4.2c-0.4-1.2-1.5-2-2.8-2s-2.4,0.8-2.8,2
		h-4.2c-1.1,0-2,0.9-2,2v14c0,1.1,0.9,2,2,2h12.2v-2.1H-394.7z M-396,586.5c0.5,0,1,0.5,1,1s-0.5,1-1,1s-1-0.5-1-1
		S-396.5,586.5-396,586.5z M-401,590.5h10v2h-10V590.5z M-401,594.5h10v2h-10V594.5z"/>
	<path d="M-388.1,604.3c0.7-0.3,1.1-1,1.1-1.8v-0.1h-1.1V604.3z"/>
	<path d="M-385,601.7h-3.9v3.9h-1.3v-3.9h-3.9v-1.3h3.9v-3.9h1.3v3.9h3.9V601.7z"/>
</g>
</svg>
