<?xml version="1.0" encoding="utf-8"?>
<!-- Generator: Adobe Illustrator 19.0.0, SVG Export Plug-In . SVG Version: 6.00 Build 0)  -->
<svg version="1.1" xmlns="http://www.w3.org/2000/svg" xmlns:xlink="http://www.w3.org/1999/xlink" x="0px" y="0px"
	 viewBox="-947 529 24 24" style="enable-background:new -947 529 24 24;" xml:space="preserve">
<style type="text/css">
	.st0{fill:none;}
	.st1{fill:#FFFFFF;}
	.st2{display:none;}
	.st3{display:inline;}
</style>
<g id="Livello_1">
	<g>
		<polygon class="st0" points="-934,538 -928.5,538 -934,532.5 		"/>
		<path d="M-933,531h-8c-1.1,0-2,0.9-2,2l0,16c0,1.1,0.9,2,2,2h12c1.1,0,2-0.9,2-2v-12L-933,531z M-931.5,547.5h-1l-2.4-5.2
			l-2.4,5.2h-1.1l-2.9-6h0.9l2.6,5.4l2.4-5.4h0.9l2.4,5.4l2.4-5.4h0.8L-931.5,547.5z M-934,538v-5.5l5.5,5.5H-934z"/>
	</g>
	<g>
		<path class="st1" d="M-902.8,565.1h2.3c0.2,0,0.3,0,0.5,0s0.2,0,0.3,0.1s0.1,0.1,0.2,0.1s0.1,0.1,0.1,0.2s0,0.1,0,0.2s0,0.2,0,0.3
			c0,0.1,0,0.2,0,0.3s0,0.2,0,0.2s-0.1,0.1-0.1,0.2s-0.1,0.1-0.2,0.1s-0.2,0.1-0.4,0.1s-0.3,0-0.6,0h-1.6v1.2h-0.4V565.1z
			 M-902.4,566.6h1.6c0.2,0,0.3,0,0.4,0s0.2,0,0.3,0s0.1,0,0.2-0.1s0.1-0.1,0.1-0.1s0-0.1,0-0.2s0-0.1,0-0.2c0-0.1,0-0.2,0-0.2
			s0-0.1,0-0.2s0-0.1-0.1-0.1s-0.1,0-0.2-0.1s-0.2,0-0.3,0s-0.3,0-0.4,0h-1.6V566.6z"/>
		<path class="st1" d="M-898.9,568.1v-3h2.2c0.2,0,0.4,0,0.6,0c0.2,0,0.3,0.1,0.4,0.1c0.1,0.1,0.2,0.1,0.2,0.2
			c0.1,0.1,0.1,0.2,0.1,0.3s0,0.2,0,0.4c0,0.1,0,0.3,0,0.5s0,0.3,0,0.5c0,0.1,0,0.3,0,0.4s-0.1,0.2-0.1,0.3
			c-0.1,0.1-0.1,0.2-0.2,0.2c-0.1,0.1-0.2,0.1-0.4,0.1c-0.2,0-0.3,0-0.6,0H-898.9z M-896.7,567.8c0.2,0,0.3,0,0.4,0
			c0.1,0,0.2,0,0.3-0.1s0.1-0.1,0.2-0.1c0-0.1,0.1-0.1,0.1-0.2c0-0.1,0-0.2,0-0.3c0-0.1,0-0.3,0-0.5s0-0.3,0-0.5c0-0.1,0-0.2,0-0.3
			c0-0.1,0-0.2-0.1-0.2c0-0.1-0.1-0.1-0.2-0.1s-0.2,0-0.3-0.1c-0.1,0-0.3,0-0.4,0h-1.9v2.4H-896.7z"/>
		<path class="st1" d="M-894.7,568.1v-3h2.9v0.3h-2.5v1h2.4v0.3h-2.4v1.4H-894.7z"/>
	</g>
	<g>
		<path class="st1" d="M-943.4,573.1v0.3h-1.5v2.7h-0.4v-2.7h-1.5v-0.3H-943.4z"/>
		<path class="st1" d="M-940.8,574.5l1.8,1.6h-0.5l-1.5-1.3l-1.4,1.3h-0.5l1.7-1.6l-1.6-1.4h0.5l1.3,1.2l1.3-1.2h0.5L-940.8,574.5z"
			/>
		<path class="st1" d="M-935.2,573.1v0.3h-1.5v2.7h-0.4v-2.7h-1.5v-0.3H-935.2z"/>
	</g>
	<g>
		<path class="st1" d="M-909.8,591.8h-2.3l-0.4,0.7h-0.4l1.7-3h0.5l1.7,3h-0.4L-909.8,591.8z M-910,591.5l-1-1.8l-1,1.8H-910z"/>
		<path class="st1" d="M-908.5,589.5h2.3c0.2,0,0.3,0,0.5,0c0.1,0,0.2,0,0.3,0.1c0.1,0,0.1,0.1,0.2,0.1s0.1,0.1,0.1,0.2
			c0,0.1,0,0.1,0,0.2c0,0.1,0,0.2,0,0.3c0,0.1,0,0.2,0,0.3c0,0.1,0,0.2,0,0.2s-0.1,0.1-0.1,0.2c-0.1,0.1-0.1,0.1-0.2,0.1
			c-0.1,0-0.2,0.1-0.4,0.1c-0.2,0-0.3,0-0.6,0h-1.6v1.2h-0.4V589.5z M-908.1,591h1.6c0.2,0,0.3,0,0.4,0c0.1,0,0.2,0,0.3,0
			s0.1,0,0.2-0.1c0,0,0.1-0.1,0.1-0.1c0,0,0-0.1,0-0.2c0-0.1,0-0.1,0-0.2c0-0.1,0-0.2,0-0.2c0-0.1,0-0.1,0-0.2c0,0,0-0.1-0.1-0.1
			c0,0-0.1,0-0.2-0.1s-0.2,0-0.3,0c-0.1,0-0.3,0-0.4,0h-1.6V591z"/>
		<path class="st1" d="M-901.8,589.5h0.6l-2.1,1.5l2.2,1.5h-0.6l-2-1.4h-0.5v1.4h-0.4v-3h0.4v1.3h0.5L-901.8,589.5z"/>
	</g>
</g>
<g id="Livello_2" class="st2">
	<path class="st3" d="M-941,531c-1.1,0-2,0.9-2,2l0,16c0,1.1,0.9,2,2,2h12c1.1,0,2-0.9,2-2v-12l-6-6H-941z M-934,538v-5.5l5.5,5.5
		H-934z"/>
</g>
</svg>
